<svg width="600" height="150" viewBox="0 0 600 150" fill="none" xmlns="http://www.w3.org/2000/svg">
  <title>NeoTunes Full Horizontal Logo</title>
  <defs>
    <linearGradient id="neotunes-horiz-symbol-grad" x1="20" y1="130" x2="130" y2="20" gradientUnits="userSpaceOnUse">
      <stop offset="0%" stop-color="#00D9FF" />
      <stop offset="35%" stop-color="#2563FF" />
      <stop offset="70%" stop-color="#6D3BFF" />
      <stop offset="100%" stop-color="#FF2D9A" />
    </linearGradient>
    <linearGradient id="neotunes-horiz-text-grad" x1="330" y1="0" x2="550" y2="0" gradientUnits="userSpaceOnUse">
      <stop offset="0%" stop-color="#00D9FF" />
      <stop offset="50%" stop-color="#6D3BFF" />
      <stop offset="100%" stop-color="#FF2D9A" />
    </linearGradient>
  </defs>

  <!-- Symbol Mark scaled to 110x110 at (20, 20) -->
  <g transform="translate(20, 20) scale(0.215)">
    <path
      fill-rule="evenodd"
      clip-rule="evenodd"
      d="M112 416 V176 C112 127.399 151.399 88 200 88 H204 C228.471 88 251.815 99.277 267.098 118.527 L336 205.419 V160 C336 111.399 375.399 72 424 72 H432 V336 C432 384.601 392.601 424 344 424 H340 C315.529 424 292.185 412.723 276.902 393.473 L208 306.581 V352 C208 400.601 168.601 440 120 440 H112 V416 Z M228 196 V316 L316 256 L228 196 Z"
      fill="url(#neotunes-horiz-symbol-grad)"
    />
  </g>

  <!-- Geometric Wordmark Typography -->
  <g transform="translate(156, 96)">
    <text font-family="system-ui, -apple-system, sans-serif" font-weight="900" font-size="52" letter-spacing="7" fill="#FFFFFF">NEO</text>
    <text font-family="system-ui, -apple-system, sans-serif" font-weight="900" font-size="52" letter-spacing="7" fill="url(#neotunes-horiz-text-grad)" x="136">TUNES</text>
  </g>
</svg>
